<?xml version="1.0" standalone="no"?>
<!DOCTYPE svg PUBLIC "-//W3C//DTD SVG 20010904//EN"
 "http://www.w3.org/TR/2001/REC-SVG-20010904/DTD/svg10.dtd">
<svg version="1.0" xmlns="http://www.w3.org/2000/svg"
 width="272.000000pt" height="272.000000pt" viewBox="0 0 272.000000 272.000000"
 preserveAspectRatio="xMidYMid meet">

<g transform="translate(0.000000,272.000000) scale(0.100000,-0.100000)"
fill="#000000" stroke="none">
<path d="M0 1360 l0 -1360 1360 0 1360 0 0 1360 0 1360 -1360 0 -1360 0 0
-1360z m1394 1229 c32 -37 34 -74 5 -89 -38 -21 -52 -5 -44 48 l6 47 -30 -33
c-50 -54 -116 -65 -109 -18 2 15 11 22 33 24 38 5 88 40 81 58 -9 23 27 0 58
-37z m-100 19 c-7 -10 -62 -20 -74 -13 -19 12 0 22 39 21 22 0 37 -4 35 -8z
m-176 -27 c4 -22 2 -23 -47 -16 -28 4 -51 4 -51 0 0 -15 31 -65 46 -73 14 -8
15 -16 7 -48 l-9 -39 -18 34 c-13 24 -15 36 -7 44 8 8 0 17 -26 31 -50 29 -62
51 -41 72 14 14 20 15 32 4 11 -8 20 -9 29 -2 34 28 81 24 85 -7z m51 -1 c-27
-7 -39 8 -18 21 8 4 19 3 27 -4 12 -10 11 -13 -9 -17z m-230 -20 c14 0 14 -2
1 -10 -41 -26 -87 2 -59 36 12 15 15 14 27 -5 8 -11 22 -21 31 -21z m703 -5
c20 -17 42 -25 68 -25 25 0 40 -5 44 -16 12 -30 6 -44 -18 -44 -34 0 -49 -22
-31 -46 8 -10 15 -27 15 -37 0 -13 7 -18 23 -17 42 4 49 1 44 -20 -3 -13 0
-20 9 -20 8 0 14 6 14 13 0 21 36 49 57 45 10 -2 18 -12 18 -23 0 -14 -10 -22
-37 -30 -20 -5 -37 -13 -37 -17 -2 -22 1 -26 24 -32 29 -7 33 -37 9 -57 -14
-11 -20 -10 -40 14 -13 16 -24 39 -24 53 0 15 -4 23 -11 19 -6 -4 -9 -35 -7
-78 3 -63 1 -72 -16 -75 -16 -3 -17 1 -12 35 5 27 2 44 -8 58 -9 11 -16 15
-16 9 0 -7 -18 -19 -39 -27 -41 -17 -71 -50 -71 -79 0 -10 -11 -25 -25 -34
-37 -24 -106 -11 -152 29 l-36 32 5 -28 c5 -26 4 -27 -13 -12 -16 15 -18 15
-29 -4 -8 -16 -8 -27 1 -43 7 -13 12 -24 11 -25 -6 -10 0 -23 8 -18 5 3 16 -9
24 -27 l14 -33 1 41 c1 22 -4 45 -11 52 -18 18 23 16 50 -4 12 -8 22 -11 22
-6 0 6 20 12 44 13 52 5 53 -14 1 -33 -27 -9 -35 -18 -37 -42 -3 -28 -7 -31
-35 -31 -22 0 -33 -5 -37 -17 -3 -13 2 -18 16 -18 27 0 58 -18 58 -35 0 -9 14
-15 38 -17 l37 -4 -32 -13 c-25 -10 -35 -22 -43 -50 -14 -54 -43 -77 -78 -65
-38 14 -34 59 9 96 27 23 30 28 16 34 -9 3 -35 4 -57 2 -22 -2 -40 0 -40 4 0
10 30 38 42 38 6 0 1 8 -11 18 -12 9 -23 27 -24 40 -1 17 -7 22 -32 22 -16 0
-39 7 -49 15 -11 8 -27 15 -35 15 -23 -1 25 -37 66 -50 36 -12 51 -43 33 -65
-22 -26 -39 -16 -65 35 -25 50 -42 63 -97 74 -31 7 -51 36 -42 61 4 9 31 27
61 40 47 21 57 31 78 77 l25 53 0 -49 c0 -52 -16 -122 -34 -145 -11 -14 -13
-15 52 4 21 6 21 8 7 28 -31 44 -5 104 34 80 15 -10 17 -7 13 19 -5 32 11 50
35 41 9 -4 13 -15 10 -30 -4 -20 2 -27 28 -40 31 -15 35 -15 70 7 26 16 45 21
66 16 25 -5 31 -2 39 18 11 29 56 66 82 66 11 0 28 -4 38 -10 16 -9 17 -6 10
26 -5 20 -10 37 -12 38 -1 1 -24 16 -50 32 -27 16 -48 34 -48 41 0 26 13 43
34 43 15 0 25 9 33 31 l12 31 -37 -7 c-59 -11 -72 -22 -72 -60 0 -63 -71 -93
-78 -32 -3 23 5 37 38 68 22 21 36 39 30 39 -5 0 -10 11 -10 25 0 19 5 25 21
25 12 0 34 -11 51 -25z m-124 3 c18 -18 14 -43 -12 -71 -13 -14 -27 -41 -31
-58 -6 -28 -9 -30 -17 -14 -14 25 -12 123 2 140 15 18 42 19 58 3z m-711 -23
c3 -9 0 -35 -7 -59 -10 -37 -9 -48 4 -74 14 -28 15 -31 1 -26 -51 20 -62 174
-13 174 5 0 11 -7 15 -15z m423 -28 c40 -20 45 -26 48 -59 4 -47 -27 -84 -58
-68 -17 9 -19 6 -25 -34 -7 -42 -25 -63 -46 -50 -15 9 -10 25 20 59 29 33 29
33 14 80 -12 35 -24 51 -54 68 -21 12 -39 26 -39 31 0 14 92 -4 140 -27z
m-264 2 c40 -24 44 -33 9 -17 -21 9 -32 8 -62 -6 -32 -15 -38 -16 -51 -2 -13
12 -13 18 -2 30 18 22 67 20 106 -5z m864 -20 c0 -5 -9 -9 -20 -9 -11 0 -20 6
-20 14 0 9 7 12 20 9 11 -3 20 -9 20 -14z m-1112 -10 c1 -8 -11 -22 -28 -31
-35 -20 -36 -18 -14 23 15 30 37 35 42 8z m-87 -17 c-16 -30 -50 -55 -66 -49
-28 11 -15 35 28 50 23 8 43 15 45 16 1 0 -2 -7 -7 -17z m241 -8 c24 -12 36
-14 55 -5 34 16 41 14 59 -14 35 -54 -39 -76 -95 -29 l-31 26 0 -35 c0 -43 43
-82 73 -66 24 14 79 7 85 -10 4 -11 -4 -13 -38 -8 -36 5 -46 2 -67 -19 -13
-13 -33 -24 -43 -24 -38 0 -52 71 -27 133 18 41 11 67 -10 38 -18 -26 -33 -27
-33 -3 0 36 23 41 72 16z m474 -39 c22 -44 25 -57 15 -69 -24 -29 -39 -7 -43
60 -2 35 -2 64 -1 64 1 0 14 -25 29 -55z m-191 4 c8 -33 -11 -48 -33 -26 -13
14 -14 21 -3 43 13 30 26 24 36 -17z m261 30 c3 -6 -3 -20 -14 -32 -19 -19
-22 -19 -28 -4 -13 35 23 66 42 36z m478 -5 c11 -28 7 -32 -21 -25 -37 10 -44
41 -10 41 14 0 28 -7 31 -16z m-98 -29 c-19 -28 -39 -29 -44 -2 -2 11 3 17 17
17 11 0 23 5 26 11 4 6 9 8 12 5 3 -3 -2 -17 -11 -31z m-750 -18 c21 -12 17
-27 -6 -27 -24 0 -35 22 -25 48 6 14 8 15 13 2 3 -8 11 -19 18 -23z m922 -8
c35 -33 38 -39 20 -57 -31 -31 -78 7 -70 56 2 18 7 32 11 32 3 0 21 -14 39
-31z m-1238 1 c26 -26 26 -76 0 -90 -15 -8 -30 -5 -67 15 -43 22 -53 23 -88
14 -22 -6 -42 -13 -44 -15 -3 -2 8 -17 23 -33 27 -28 27 -31 16 -68 -15 -45
-25 -58 -39 -49 -8 5 -6 16 4 37 15 27 14 32 -3 54 l-19 24 5 -47 c3 -38 0
-50 -16 -65 -18 -17 -24 -17 -49 -5 -39 18 -42 53 -6 70 38 18 46 74 11 81
-14 3 -7 5 17 6 29 1 51 10 77 31 72 60 143 75 178 40z m-235 -36 c-17 -26
-38 -28 -43 -3 -3 15 51 51 56 37 2 -5 -4 -20 -13 -34z m964 12 c17 -21 3 -43
-31 -50 -39 -8 -43 -4 -27 26 20 38 39 47 58 24z m76 4 c8 12 65 13 84 1 7 -5
10 -14 7 -20 -5 -7 1 -11 13 -11 25 0 26 -8 5 -38 -17 -25 -36 -28 -53 -8 -9
11 -8 17 3 29 20 19 2 37 -37 37 -22 0 -27 -3 -19 -12 21 -26 19 -108 -3 -108
-21 0 -27 19 -16 55 6 21 4 39 -7 60 -14 27 -14 29 1 17 10 -9 17 -10 22 -2z
m-275 -40 c0 -40 -53 -101 -72 -82 -10 10 -6 19 25 47 20 19 37 41 37 49 0 9
2 16 5 16 3 0 5 -13 5 -30z m778 -22 c5 -18 6 -46 2 -63 -4 -24 -12 -31 -33
-33 -53 -6 -81 50 -32 62 18 5 27 15 32 36 7 39 20 38 31 -2z m-918 3 c16 -31
12 -59 -10 -71 -11 -6 -20 -17 -20 -25 0 -11 5 -11 30 1 40 20 75 15 75 -11 0
-17 -6 -20 -36 -17 -42 4 -57 -11 -37 -36 10 -13 7 -12 -20 3 -27 16 -52 47
-68 83 -1 2 -14 0 -29 -4 -18 -4 -30 -17 -37 -35 -11 -32 -47 -40 -67 -15 -27
32 25 71 90 69 31 -2 39 2 39 15 0 51 68 83 90 43z m361 -34 c-13 -34 -39 -57
-56 -51 -22 9 -18 30 9 48 14 8 28 25 31 37 6 19 9 20 16 6 5 -9 5 -25 0 -40z
m456 37 c2 -6 -8 -19 -22 -28 -24 -16 -25 -16 -25 7 0 13 3 27 7 31 10 10 36
3 40 -10z m-1513 -41 c-14 -22 -25 -25 -44 -13 -13 9 -11 13 9 31 28 23 53 11
35 -18z m911 -23 c0 -22 -1 -40 -2 -40 -1 0 -11 16 -23 35 -18 29 -20 38 -9
51 18 22 33 1 34 -46z m-667 34 c12 -8 27 -24 33 -35 10 -19 9 -20 -18 -6 -20
11 -33 12 -44 4 -24 -15 -49 -1 -49 28 0 21 5 25 28 25 15 0 38 -7 50 -16z
m158 -39 c5 -19 -1 -33 -25 -60 -34 -39 -40 -81 -17 -118 16 -26 5 -67 -18
-67 -15 0 -39 33 -31 42 3 2 -21 2 -53 0 -66 -5 -86 9 -80 54 5 47 31 52 72
16 20 -18 42 -32 49 -32 8 0 7 4 -3 11 -12 8 -9 10 13 6 23 -4 27 -1 21 12
-13 31 -16 118 -5 140 17 32 69 29 77 -4z m1119 -16 c28 -25 35 -38 35 -68 0
-20 -5 -42 -12 -49 -22 -22 48 -72 102 -72 17 0 20 4 15 21 -9 28 21 59 56 59
19 0 35 -10 53 -32 l26 -33 -53 -8 c-28 -5 -65 -14 -82 -21 l-30 -13 39 -17
c21 -9 46 -16 56 -16 25 0 43 -25 35 -50 -8 -25 -45 -27 -81 -4 -22 15 -24 15
-18 0 3 -9 12 -16 20 -16 19 0 18 -39 -1 -46 -21 -8 -19 -57 3 -77 18 -16 18
-15 14 13 -6 41 20 78 60 85 24 5 37 15 48 38 14 31 60 52 60 28 0 -6 -4 -11
-9 -11 -4 0 -20 -11 -35 -25 -23 -21 -26 -28 -16 -40 7 -8 10 -26 8 -40 -5
-22 -3 -24 21 -18 37 9 39 12 11 33 -30 23 -20 26 20 5 32 -17 60 -61 60 -95
0 -28 -34 -23 -38 6 -2 16 -8 20 -28 16 -20 -4 -22 -7 -13 -19 7 -7 13 -30 14
-49 2 -26 9 -39 26 -48 15 -7 24 -20 23 -34 -1 -26 -3 -25 30 -12 20 7 26 6
26 -4 0 -7 -3 -16 -7 -20 -4 -4 -6 -24 -4 -45 2 -29 -4 -45 -22 -67 -22 -25
-27 -27 -51 -16 -14 6 -26 18 -26 26 0 17 36 40 49 31 12 -7 41 22 41 41 0 12
-3 13 -22 0 -13 -7 -35 -16 -50 -20 -16 -4 -28 -13 -28 -20 0 -22 -33 -55 -61
-61 -36 -9 -63 18 -48 46 9 17 17 19 49 14 23 -4 41 -2 45 4 3 7 -2 11 -14 11
-11 0 -24 6 -28 13 -11 16 -58 55 -49 40 4 -7 -2 -21 -14 -33 -30 -30 -25 -61
15 -99 37 -35 43 -56 22 -85 -29 -39 -87 16 -87 82 0 16 5 43 11 59 9 27 7 34
-15 58 -14 15 -26 33 -26 40 0 7 -7 18 -15 25 -27 22 -9 22 41 -1 27 -12 52
-24 56 -26 4 -2 5 14 2 34 -5 36 -5 37 10 19 9 -11 16 -24 16 -30 0 -5 3 -7 6
-3 3 3 23 -3 42 -14 20 -10 48 -19 62 -18 14 0 19 3 13 6 -7 2 -13 13 -13 23
0 9 -6 23 -14 29 -8 7 -17 33 -20 59 -8 70 -8 70 -22 65 -24 -9 -24 -47 -1
-95 25 -51 18 -51 -37 0 -21 19 -36 27 -36 19 0 -24 -37 -49 -59 -42 -45 14
-66 113 -38 179 7 16 11 43 9 61 -3 28 -7 32 -25 27 -12 -3 -19 -1 -15 3 5 5
-1 15 -13 23 -16 11 -17 17 -8 28 10 12 3 14 -43 14 -30 0 -59 5 -66 12 -17
17 -15 48 4 69 13 14 13 20 2 38 -10 17 -10 25 0 39 24 33 25 44 8 73 -22 37
-15 37 29 -2z m180 -9 l38 -30 -45 0 c-53 0 -79 20 -58 45 17 20 22 19 65 -15z
m-1245 -62 c0 -28 -24 -49 -47 -41 -18 6 -16 38 2 53 8 7 15 27 16 44 l1 31
13 -30 c8 -16 14 -42 15 -57z m-480 40 c11 -18 21 -37 23 -41 1 -5 18 -12 37
-16 26 -5 35 -12 35 -26 0 -16 -9 -21 -47 -25 -36 -5 -52 -12 -69 -34 -18 -23
-27 -27 -54 -22 -25 5 -34 3 -39 -10 -12 -31 -6 -54 24 -84 l30 -31 0 31 c0
23 -6 33 -25 40 -36 14 -31 20 14 20 24 0 48 -7 62 -20 l24 -20 -23 -19 c-13
-12 -20 -25 -16 -35 4 -10 -1 -18 -12 -23 -11 -4 -25 -15 -32 -25 -33 -45 -85
1 -85 76 0 23 7 57 16 76 16 31 16 34 -1 46 -9 7 -28 14 -42 14 -37 1 -8 15
74 35 62 16 71 16 80 2 10 -13 15 -12 38 8 l27 23 -44 19 c-44 17 -63 42 -50
63 12 19 35 10 55 -22z m1500 -3 c0 -7 -7 -18 -15 -25 -12 -10 -15 -7 -21 14
-8 33 3 51 22 35 8 -6 14 -17 14 -24z m-1236 16 c12 -19 -7 -41 -44 -51 -21
-6 -44 -18 -51 -27 -12 -14 -12 -16 2 -11 14 5 16 0 12 -36 -5 -40 -3 -43 26
-56 18 -7 40 -24 51 -37 18 -23 22 -24 79 -15 69 10 84 4 79 -29 -4 -33 -54
-37 -99 -10 -39 24 -49 26 -49 9 0 -6 -8 -20 -17 -31 -17 -19 -17 -20 4 -8 30
16 60 14 67 -4 7 -20 -16 -29 -54 -21 -33 6 -39 -4 -14 -25 10 -8 15 -25 12
-49 -3 -34 -2 -36 23 -32 24 3 26 8 25 48 -1 50 27 91 44 65 5 -10 3 -25 -6
-42 -17 -34 -18 -69 -1 -70 6 0 30 0 53 1 31 1 48 -5 72 -25 36 -30 42 -55 12
-55 -11 0 -20 4 -20 9 0 12 -47 61 -59 61 -5 0 -4 -12 4 -27 20 -38 0 -68 -44
-68 -22 0 -30 -4 -26 -13 3 -8 5 -22 5 -33 0 -17 3 -18 21 -8 28 15 64 -1 72
-32 5 -17 -3 -31 -32 -58 -42 -40 -61 -70 -61 -98 1 -11 8 -5 20 19 11 20 30
44 42 52 32 23 85 21 98 -3 13 -25 13 -27 -6 -46 -13 -12 -14 -19 -5 -28 30
-30 1 -77 -47 -77 -23 0 -32 -18 -33 -63 0 -27 -2 -29 -9 -12 -5 11 -9 39 -9
63 -1 35 5 49 29 73 l29 30 -25 11 c-21 10 -28 8 -47 -10 -19 -20 -20 -25 -9
-54 7 -19 8 -36 3 -41 -13 -13 -28 -1 -36 30 -9 38 -34 63 -61 63 -28 0 -34 9
-36 55 -1 20 -4 31 -8 25 -9 -14 -23 2 -43 50 -9 19 -16 29 -16 23 -2 -24 -39
-14 -45 12 -6 22 -9 23 -26 13 -27 -17 -52 -1 -62 38 -10 39 -56 84 -67 66
-10 -17 -41 -4 -41 18 0 11 15 23 40 33 38 15 39 15 30 -3 -14 -26 -13 -27 18
-35 41 -10 102 -55 102 -77 0 -17 1 -18 25 -2 23 15 25 15 25 -1 0 -12 5 -15
16 -11 9 3 22 6 31 6 11 0 10 6 -6 26 -12 15 -21 34 -21 43 0 8 -7 35 -17 59
-13 34 -14 52 -6 86 13 57 -7 85 -55 78 -25 -3 -32 -1 -32 12 0 11 9 16 30 16
33 0 38 11 15 30 -9 7 -37 10 -72 8 -56 -3 -58 -2 -58 22 0 20 8 27 48 41 26
9 47 13 47 9 0 -5 -4 -12 -10 -15 -5 -3 -15 -15 -20 -25 -10 -18 -9 -19 15 -8
16 7 25 19 25 35 0 13 7 26 15 29 8 4 15 16 15 29 0 44 105 117 124 86z m1052
-28 c9 -33 -4 -54 -44 -70 l-31 -13 6 38 c8 51 20 72 43 72 13 0 22 -9 26 -27z
m-1388 -24 c-4 -31 -38 -39 -38 -10 0 12 5 21 10 21 6 0 10 8 10 17 0 12 3 14
11 6 6 -6 9 -21 7 -34z m396 26 c7 -20 -3 -44 -24 -55 -15 -8 -17 -4 -14 28 2
20 3 38 3 40 3 9 30 -1 35 -13z m1090 -10 c20 -30 20 -49 2 -64 -22 -19 -43
10 -38 53 5 42 14 45 36 11z m-747 -10 c46 -31 17 -160 -32 -141 -20 7 -30
-17 -17 -40 9 -16 11 -15 21 4 14 25 38 28 60 7 9 -8 37 -17 61 -21 41 -7 44
-6 31 9 -12 15 -11 17 7 17 11 0 26 -7 33 -16 11 -14 10 -19 -10 -35 -13 -11
-41 -22 -62 -25 l-39 -6 25 -20 c14 -11 32 -33 41 -50 14 -27 14 -32 0 -54
-15 -21 -22 -23 -84 -21 -52 3 -72 -1 -91 -15 -35 -27 -125 -9 -107 21 5 8 17
7 39 -2 18 -8 39 -12 47 -10 42 12 43 13 31 27 -18 21 6 32 28 12 10 -9 24
-16 32 -16 14 0 39 43 39 67 0 27 -24 62 -51 74 -16 6 -29 16 -29 22 0 7 -4 7
-12 -1 -16 -16 -48 4 -48 30 0 22 46 78 63 78 6 0 15 7 22 16 10 14 6 22 -21
49 -18 19 -43 36 -55 40 -17 6 -19 9 -8 16 16 11 55 3 86 -16z m1106 -16 c-6
-6 -18 -6 -28 -3 -18 7 -18 8 1 14 23 9 39 1 27 -11z m-103 -3 c0 -8 -5 -18
-11 -22 -7 -4 -9 -21 -6 -43 6 -33 5 -34 -8 -17 -24 32 -17 96 11 96 8 0 14
-6 14 -14z m-1056 -27 c16 -24 12 -41 -21 -85 -16 -21 -23 -44 -23 -75 0 -41
-1 -42 -14 -23 -8 11 -18 32 -21 46 l-7 26 -32 -36 c-22 -24 -38 -33 -49 -29
-31 12 -19 42 26 62 38 18 43 24 49 65 11 67 61 93 92 49z m-158 -21 c33 2 48
-15 38 -43 -9 -23 -39 -18 -73 11 -34 28 -42 51 -13 38 9 -4 31 -7 48 -6z
m1019 -30 c-2 -34 2 -46 21 -61 28 -22 49 -59 57 -104 5 -25 1 -36 -20 -57
-33 -33 -56 -33 -81 1 -22 31 -40 26 -23 -5 6 -11 27 -26 46 -32 19 -6 35 -15
35 -18 0 -22 -43 -73 -58 -70 -28 5 -19 32 18 51 l35 19 -73 -6 c-135 -11
-228 58 -176 132 27 40 74 22 74 -28 0 -14 6 -34 14 -45 12 -17 13 -16 20 10
5 19 2 33 -10 47 -17 18 -17 19 3 24 12 4 23 16 25 28 3 18 11 21 53 24 l50 3
-29 -30 c-16 -16 -38 -32 -50 -34 -20 -3 -19 -4 6 -16 25 -13 29 -11 52 15 29
33 32 52 13 79 -10 12 -16 14 -21 7 -9 -15 -46 -16 -46 -2 0 6 -15 4 -36 -5
-48 -20 -66 -19 -98 6 -33 26 -34 63 -2 84 26 17 62 9 85 -19 20 -24 47 -19
83 14 18 16 33 30 34 30 1 0 0 -19 -1 -42z m-265 -28 c0 -10 -6 -22 -12 -26
-9 -6 -5 -10 12 -15 l25 -6 -27 -13 c-25 -12 -25 -14 -13 -44 24 -59 28 -114
10 -142 -13 -21 -23 -25 -53 -22 -30 2 -38 7 -40 26 -2 14 5 33 16 45 47 52
57 111 20 120 -12 4 -26 1 -31 -6 -5 -7 -5 -2 -1 12 21 77 94 132 94 71z m614
-26 c9 -3 16 -12 16 -20 0 -17 -26 -19 -36 -3 -3 6 -22 9 -41 7 -31 -4 -33 -3
-17 9 19 14 52 17 78 7z m-567 -59 c-13 -27 -22 -31 -32 -15 -8 13 13 40 30
40 10 0 11 -5 2 -25z m393 -71 c0 -6 -9 -19 -20 -29 -19 -17 -21 -17 -42 1
-17 15 -15 10 6 -18 53 -71 64 -153 25 -184 -39 -31 -99 -14 -99 27 0 23 -22
25 -40 4 -10 -13 -7 -17 21 -30 l34 -14 -33 -13 c-41 -16 -36 -32 14 -38 36
-5 39 -8 39 -35 0 -24 -5 -31 -23 -33 -29 -4 -56 19 -73 61 -7 18 -21 38 -32
45 -27 21 -18 56 16 60 15 2 27 8 27 15 0 6 10 21 21 33 18 19 26 21 42 13 15
-8 22 -8 28 2 10 15 4 185 -8 215 -4 11 14 0 45 -26 29 -25 52 -50 52 -56z
m-1585 49 c-9 -39 -39 -67 -62 -59 -16 7 -14 10 15 34 18 15 32 33 32 40 0 6
5 12 11 12 7 0 9 -10 4 -27z m489 -18 c16 -24 16 -25 -4 -25 l-20 0 20 -20
c23 -23 26 -65 5 -74 -20 -7 -44 19 -38 43 3 12 -3 24 -18 35 l-23 16 23 0
c19 0 21 3 11 15 -6 8 -9 19 -5 25 11 17 32 11 49 -15z m-411 -23 c9 -8 17
-21 17 -29 0 -19 -37 -16 -43 5 -2 9 -8 26 -13 36 -8 21 5 17 39 -12z m497 13
c33 -17 42 -61 14 -72 -19 -7 -38 12 -52 55 -12 37 -6 40 38 17z m210 -5 c4
-8 12 -28 16 -45 8 -27 20 -36 84 -65 8 -4 16 -20 18 -36 7 -70 48 -121 50
-61 1 37 46 87 63 70 8 -8 5 -16 -9 -29 -24 -24 -42 -57 -42 -80 0 -14 3 -15
12 -6 7 7 21 12 32 12 16 0 17 -3 8 -12 -7 -7 -12 -22 -12 -34 0 -31 -16 -38
-32 -16 -7 11 -24 23 -38 27 -23 7 -23 7 -7 -9 26 -26 9 -39 -20 -16 -14 11
-33 20 -42 21 -9 1 -5 4 8 8 25 7 24 7 -12 29 -48 28 -65 63 -50 103 10 25 9
31 -8 40 -45 23 -81 125 -43 117 9 -2 20 -10 24 -18z m1060 -5 l34 -25 -36 0
c-39 0 -53 12 -44 35 7 19 6 19 46 -10z m-1452 -13 c2 -7 -7 -12 -23 -12 -14
0 -35 -5 -45 -10 -16 -8 -18 -7 -14 4 6 15 51 36 68 32 6 -1 12 -8 14 -14z
m517 -21 c-9 -9 -24 -11 -49 -7 -53 10 -44 25 13 23 42 -2 48 -4 36 -16z
m-863 -17 c7 -14 23 -32 37 -39 l26 -14 -33 -1 c-43 0 -92 26 -92 49 0 39 45
44 62 5z m373 -24 c0 -11 -12 -15 -46 -15 -26 0 -54 -6 -64 -15 -17 -14 -17
-14 -7 7 17 31 41 43 82 40 23 -1 35 -7 35 -17z m-475 -1 c0 -12 -35 -29 -59
-29 -19 0 -28 19 -15 32 9 9 74 7 74 -3z m1281 -24 c26 -14 69 -67 69 -87 0
-16 -34 -38 -60 -38 -36 0 -46 15 -29 46 11 21 10 30 -4 59 -19 40 -17 41 24
20z m-441 -24 c0 -10 -6 -24 -14 -30 -21 -18 -31 5 -16 35 14 26 30 23 30 -5z
m-740 -21 c0 -4 -11 -5 -25 -2 -27 5 -33 17 -12 25 13 5 37 -10 37 -23z m690
-30 c26 0 33 -15 15 -30 -19 -16 -65 1 -65 24 0 8 -3 23 -6 33 -6 15 -3 14 15
-4 12 -13 30 -23 41 -23z m-630 16 c0 -7 -7 -19 -15 -26 -13 -11 -15 -8 -15
14 0 16 5 26 15 26 8 0 15 -6 15 -14z m479 5 c14 -9 13 -14 -14 -61 l-14 -24
-10 28 c-8 19 -8 33 -1 47 12 21 18 23 39 10z m599 -29 c3 -29 0 -35 -28 -45
-29 -11 -31 -15 -28 -49 2 -21 2 -38 1 -38 -10 0 -33 66 -33 95 0 71 82 106
88 37z m172 20 c0 -9 -13 -29 -29 -44 -30 -29 -30 -30 -16 35 6 31 45 40 45 9z
m-700 -31 c-1 -27 -25 -51 -61 -57 -34 -6 -34 -6 -11 10 12 10 22 25 22 35 0
23 19 41 36 34 8 -3 14 -13 14 -22z m423 15 c7 -17 -11 -36 -35 -36 -22 0 -23
8 -1 32 19 22 29 23 36 4z m825 -3 c5 -10 7 -26 3 -36 -6 -16 -9 -16 -30 7
-23 25 -21 46 4 46 8 0 18 -8 23 -17z m-1380 -22 c28 -17 9 -45 -36 -53 -23
-4 -56 -17 -72 -28 -21 -15 -30 -17 -30 -8 0 21 30 58 64 79 34 21 54 23 74
10z m-574 -23 c9 -12 16 -28 16 -35 0 -22 -20 -14 -30 11 -5 13 -17 29 -27 35
-17 10 -16 10 4 11 12 0 29 -10 37 -22z m448 -8 c-12 -11 -28 -20 -37 -20 -8
0 -15 9 -15 20 0 16 7 20 37 20 l37 0 -22 -20z m433 -34 c9 -44 -10 -80 -36
-73 -15 4 -23 -3 -33 -27 -17 -42 -61 -76 -97 -76 -31 0 -59 23 -59 48 0 22
78 97 110 107 14 4 33 14 43 23 16 14 17 13 17 -12 0 -17 4 -25 11 -20 7 4 9
21 5 46 -6 36 -5 38 13 28 11 -6 23 -25 26 -44z m-106 30 c9 -10 8 -16 -3 -26
-9 -6 -20 -9 -25 -6 -5 4 -26 -7 -45 -25 -39 -34 -78 -36 -84 -5 -5 25 14 44
30 28 20 -20 42 -14 70 18 29 33 40 36 57 16z m353 -21 c-2 -14 0 -31 6 -38
18 -22 31 -94 19 -106 -21 -21 -27 -11 -27 47 -1 53 -2 56 -16 37 -10 -13 -13
-31 -9 -52 5 -25 2 -33 -9 -33 -26 0 -37 34 -20 59 13 18 14 25 3 38 -12 13
-9 20 21 44 19 16 35 29 36 29 1 0 -1 -11 -4 -25z m140 -24 c-3 -44 10 -71 33
-71 7 0 10 9 8 24 -5 25 21 86 37 86 19 0 19 -19 -2 -45 -14 -18 -21 -42 -22
-73 -1 -36 -5 -48 -18 -50 -13 -3 -18 3 -18 21 0 14 -7 31 -17 38 -27 23 -54
91 -41 107 6 7 18 11 27 10 12 -3 15 -14 13 -47z m-693 -24 c13 -34 37 -50 63
-42 22 6 22 5 3 -6 -30 -18 -29 -16 -35 -67 -5 -44 -7 -47 -35 -47 -45 0 -46
36 -2 80 19 19 31 35 26 35 -15 0 -49 39 -49 55 0 23 19 18 29 -8z m1031 -48
c0 -21 -5 -29 -18 -29 -16 0 -19 9 -20 53 l-1 52 20 -24 c10 -13 19 -36 19
-52z m48 -8 c-2 -14 -9 -27 -17 -29 -10 -3 -12 3 -9 29 3 19 1 43 -4 54 -7 14
-4 13 11 -5 12 -14 20 -36 19 -49z m-1128 44 c15 -18 6 -45 -13 -45 -8 0 -20
7 -27 15 -7 8 -22 15 -34 15 -21 1 -21 1 -2 15 25 19 60 19 76 0z m454 -4 c36
-24 65 -68 59 -91 -3 -10 -15 -22 -28 -28 -31 -14 -47 5 -39 45 3 17 1 41 -6
53 -12 23 -12 23 -26 -9 -14 -34 -36 -38 -42 -8 -2 11 6 21 23 27 14 5 23 14
20 20 -10 16 7 12 39 -9z m416 -4 c0 -13 -9 -32 -20 -42 -20 -18 -20 -17 -20
17 0 19 3 38 7 41 14 15 33 6 33 -16z m-154 -18 c17 -35 33 -89 27 -89 -12 0
-93 74 -93 86 0 15 30 35 45 30 6 -1 15 -13 21 -27z m205 -33 c10 -13 30 -27
44 -30 45 -12 26 -32 -25 -27 -44 5 -81 45 -65 71 10 16 26 12 46 -14z m-540
-27 c11 -11 19 -28 17 -37 -5 -24 -47 -28 -54 -5 -3 10 -10 26 -15 35 -13 25
-12 28 11 28 11 0 29 -9 41 -21z m704 -49 c0 -15 -7 -24 -20 -26 -26 -4 -42
-27 -49 -72 -4 -20 -12 -50 -18 -65 l-11 -28 -30 45 c-24 38 -27 49 -17 61 16
19 29 19 51 0 16 -15 16 -13 12 29 -7 57 2 93 25 99 26 6 57 -17 57 -43z
m-788 18 c28 -26 30 -64 4 -77 -29 -16 -48 12 -31 44 11 20 11 27 0 40 -19 23
0 18 27 -7z m419 -1 c16 -14 24 -29 20 -35 -11 -17 -21 -15 -54 13 -17 14 -43
25 -58 25 -23 0 -26 2 -14 10 27 17 78 11 106 -13z m144 -9 c11 -12 20 -28 20
-35 0 -19 18 -16 37 6 17 21 43 18 43 -5 0 -17 -37 -37 -56 -30 -10 4 -14 -3
-14 -26 0 -17 3 -28 6 -25 9 9 63 -64 64 -86 0 -24 -26 -32 -57 -18 -23 11
-25 16 -21 56 4 34 0 52 -17 80 -12 21 -26 36 -31 35 -38 -6 -59 31 -32 58 18
18 35 15 58 -10z m-296 -12 c-12 -32 -109 -70 -137 -55 -29 17 -8 39 37 39 22
0 54 8 71 19 34 21 38 21 29 -3z m829 -24 c11 -18 17 -35 14 -38 -3 -3 -29 -2
-59 3 -39 6 -54 13 -56 26 -7 36 6 48 45 45 30 -2 41 -9 56 -36z m-1282 -15
c-10 -26 -29 -43 -38 -34 -2 3 5 19 18 36 26 35 34 35 20 -2z m560 23 c12 -7
19 -21 19 -40 0 -20 4 -28 13 -24 8 3 20 -2 27 -11 7 -8 22 -15 34 -14 15 0
16 2 6 6 -19 8 -30 23 -30 46 0 12 8 17 31 17 34 0 89 -47 89 -76 0 -16 -1
-16 -20 1 -20 18 -21 18 -48 -8 l-27 -27 38 0 c20 0 37 -2 37 -5 0 -12 -54
-90 -74 -107 -29 -24 -33 -23 -82 18 -121 99 -138 208 -36 233 2 1 12 -4 23
-9z m-893 -25 c11 -23 10 -24 -13 -13 -26 12 -34 38 -12 38 8 0 19 -11 25 -25z
m1380 3 c7 -7 12 -25 12 -40 0 -18 5 -28 15 -28 17 0 21 -45 5 -55 -5 -3 -10
-16 -10 -28 0 -23 -53 -90 -64 -82 -3 3 -2 -1 4 -7 26 -31 2 -76 -34 -62 -17
7 -30 -12 -30 -46 -1 -20 -7 -26 -29 -28 -18 -2 -29 2 -33 12 -9 22 21 64 50
72 27 6 41 41 24 61 -8 10 -6 13 11 13 22 0 28 14 11 25 -5 3 -10 2 -10 -4 0
-5 -19 -8 -42 -8 -40 2 -43 4 -40 27 2 14 10 32 19 40 14 13 14 13 9 -7 -4
-12 -2 -24 4 -28 5 -3 10 -1 10 6 0 8 5 7 17 -2 15 -13 16 -12 8 6 -5 11 -10
43 -13 70 -3 40 1 56 18 78 23 29 66 37 88 15z m-768 -93 c0 -17 -31 -28 -43
-16 -5 5 -6 32 -2 61 l7 52 19 -42 c10 -23 19 -48 19 -55z m-192 53 c2 -14 14
-38 28 -53 27 -29 25 -46 -6 -38 -26 7 -80 69 -80 92 0 42 53 42 58 -1z m77 0
c25 -4 32 -36 10 -44 -21 -8 -42 13 -51 51 -6 26 -5 28 7 13 8 -9 23 -18 34
-20z m-227 -11 c16 -32 9 -70 -18 -112 l-20 -30 6 33 c5 25 2 40 -15 62 -24
33 -26 51 -9 68 19 19 41 10 56 -21z m507 -8 c-5 -20 -1 -38 11 -57 16 -25 16
-26 0 -13 -13 11 -22 12 -42 2 -38 -17 -91 -14 -98 5 -17 43 29 81 53 45 21
-32 48 -27 49 9 1 36 10 53 23 44 6 -3 7 -19 4 -35z m790 -14 c0 -17 -6 -31
-12 -31 -7 -1 -22 -2 -33 -3 -10 0 -35 -14 -53 -31 -19 -16 -38 -30 -42 -30
-17 0 10 58 43 93 29 30 43 37 67 35 26 -3 30 -7 30 -33z m-1378 -20 c3 -9 3
-19 -1 -22 -9 -9 -56 18 -50 29 9 14 44 9 51 -7z m163 -27 c0 -5 -7 -8 -15 -8
-8 0 -15 2 -15 4 0 2 -3 12 -6 21 -6 15 -4 15 15 4 11 -8 21 -17 21 -21z m747
-98 c-1 -19 -8 -25 -27 -25 -23 0 -25 3 -23 40 3 66 5 68 30 38 13 -16 22 -39
20 -53z m-527 44 c0 -31 -23 -28 -28 4 -2 15 2 22 12 22 11 0 16 -9 16 -26z
m50 -6 c21 -23 43 -85 34 -100 -3 -4 -12 -8 -20 -8 -10 0 -14 12 -14 39 0 24
-8 48 -21 65 -25 31 -8 35 21 4z m103 -22 c-2 -22 -5 -41 -8 -44 -10 -11 -35
22 -35 48 0 31 8 42 30 37 11 -2 14 -13 13 -41z m119 32 c34 -28 26 -68 -14
-68 -17 0 -38 -27 -38 -50 0 -6 7 -10 16 -8 20 4 39 -24 31 -44 -3 -8 -26 -24
-50 -36 -25 -12 -48 -31 -52 -42 -4 -12 -9 -20 -11 -17 -2 2 9 32 25 67 23 51
27 70 20 94 -22 76 25 142 73 104z m394 -70 l52 -12 -36 -14 c-61 -23 -87 -25
-101 -8 -11 13 -11 19 -1 31 15 18 20 18 86 3z m-252 -18 c17 0 18 -2 6 -10
-23 -15 -66 -12 -81 7 -13 15 -11 16 20 10 18 -4 43 -7 55 -7z m119 -31 c-22
-39 -45 -54 -67 -46 -17 7 -22 42 -8 51 5 3 24 8 43 11 18 3 35 8 38 11 13 13
11 0 -6 -27z m-135 -16 c-13 -16 -68 -32 -85 -25 -7 2 -13 12 -13 21 0 14 10
17 54 17 44 0 53 -3 44 -13z m-243 -4 c9 -14 -4 -79 -15 -79 -5 0 -17 14 -25
31 -13 24 -14 34 -4 45 14 17 35 18 44 3z m455 -39 c36 -36 -3 -74 -46 -45
-13 8 -34 15 -46 15 -23 1 -22 1 5 25 34 30 60 32 87 5z m-192 -37 c3 -22 -5
-28 -35 -24 -7 1 -22 -3 -34 -9 -19 -11 -20 -10 -14 12 15 49 77 65 83 21z
m-145 1 c13 -13 -13 -42 -44 -48 -18 -3 -41 -14 -51 -23 -33 -30 -18 -1 20 38
35 36 60 47 75 33z m213 -18 c10 -8 16 -18 12 -22 -10 -9 -58 12 -58 26 0 14
23 12 46 -4z m-225 -57 c6 -12 9 -37 6 -55 -6 -37 -42 -94 -59 -94 -6 0 -6 6
2 15 12 14 11 32 -6 98 -12 49 34 78 57 36z m37 -101 c-2 -6 -10 -14 -16 -16
-7 -2 -10 2 -6 12 7 18 28 22 22 4z m-773 -168 c4 -6 1 -17 -5 -26 -16 -18 -7
-391 10 -408 22 -22 11 -37 -27 -34 -34 3 -38 6 -39 33 -1 17 -30 97 -65 179
l-64 149 -3 -153 c-2 -126 0 -156 13 -170 25 -28 18 -40 -24 -40 -42 0 -61 14
-42 33 14 14 16 407 1 407 -5 0 -10 7 -10 15 0 11 11 15 40 15 34 0 40 -3 40
-21 0 -17 104 -274 117 -289 3 -3 4 65 3 150 -1 85 -1 158 -1 163 1 11 49 8
56 -3z m863 -58 c3 -43 6 -52 22 -52 29 0 50 -11 50 -26 0 -9 -12 -14 -35 -14
l-35 0 0 -114 c0 -76 4 -117 12 -122 16 -10 38 26 32 53 -5 18 -2 23 12 23 11
0 27 -7 38 -15 18 -13 17 -16 -14 -55 -37 -46 -75 -53 -106 -19 -16 18 -19 38
-20 132 -1 86 -4 112 -15 115 -41 11 -42 12 -29 27 7 8 21 15 31 15 16 0 19 8
19 56 0 47 3 55 18 52 13 -2 18 -15 20 -56z m-115 -54 c7 -21 -4 -38 -23 -38
-22 0 -35 30 -18 42 19 11 36 10 41 -4z m-313 -30 c1 -18 1 -50 2 -71 2 -51
-35 -90 -89 -91 -25 -1 -39 -7 -41 -17 -2 -12 8 -15 48 -16 86 -1 135 -52 110
-113 -17 -42 -57 -60 -130 -60 -51 0 -65 4 -85 25 -14 13 -25 34 -25 45 0 25
27 80 39 80 5 0 7 9 4 19 -3 10 0 27 5 38 7 13 6 24 -4 38 -24 33 -18 83 16
117 27 27 36 30 70 24 22 -3 41 -2 45 4 14 23 35 9 35 -22z m-259 -19 c16 -16
19 -30 17 -67 l-3 -47 -52 -3 c-56 -3 -59 -6 -43 -46 7 -18 17 -26 34 -26 14
0 28 4 31 10 10 17 35 11 35 -8 0 -21 -38 -42 -74 -42 -52 0 -92 96 -72 173
17 70 84 99 127 56z m382 -7 c-3 -19 0 -21 16 -12 30 15 88 12 95 -5 6 -15 -3
-18 -40 -16 -12 1 -34 -10 -48 -24 -21 -21 -26 -35 -26 -75 0 -28 5 -50 12
-52 7 -3 9 -12 5 -22 -5 -12 -15 -16 -34 -14 l-28 3 3 101 c3 85 1 102 -12
107 -35 14 -8 37 39 33 15 -1 19 -7 18 -24z m607 -4 c74 -38 87 -120 28 -178
-25 -25 -38 -30 -79 -30 -39 0 -55 5 -79 27 -60 54 -48 152 22 186 44 22 56
21 108 -5z m-412 -88 c2 -52 7 -96 12 -98 6 -2 10 -10 10 -18 0 -9 -11 -14
-34 -14 -36 0 -55 14 -35 25 13 9 10 144 -4 162 -15 20 0 45 25 41 22 -3 23
-8 26 -98z"/>
<path d="M2070 1970 c-18 -12 -2 -12 25 0 13 6 15 9 5 9 -8 0 -22 -4 -30 -9z"/>
<path d="M620 1740 c0 -5 11 -12 25 -16 35 -9 57 -42 44 -66 -5 -10 -16 -18
-24 -18 -8 0 -12 -6 -9 -14 3 -8 0 -25 -7 -37 -9 -18 -9 -24 0 -27 31 -10 63
-50 66 -80 4 -52 15 -50 15 4 0 27 3 58 6 70 5 18 2 20 -29 16 -45 -5 -53 16
-21 59 26 36 32 81 12 96 -19 15 -78 24 -78 13z"/>
<path d="M1850 2058 c-12 -22 -12 -22 6 -6 10 10 15 20 12 24 -4 3 -12 -5 -18
-18z"/>
<path d="M1196 1578 c-23 -32 -25 -37 -8 -27 19 12 47 57 40 64 -2 2 -16 -15
-32 -37z"/>
<path d="M1610 1310 c-3 -37 1 -62 14 -89 l13 -23 21 36 c27 45 27 45 4 39
-20 -5 -37 11 -45 42 -4 17 -5 16 -7 -5z"/>
<path d="M1679 1240 l-24 -19 33 3 c19 2 41 11 50 20 15 15 14 16 -10 16 -14
0 -36 -9 -49 -20z"/>
<path d="M2053 1293 c-24 -9 -13 -83 12 -83 16 0 45 27 45 41 0 14 -27 11 -44
-7 -20 -20 -21 -4 -1 22 23 30 19 40 -12 27z"/>
<path d="M1120 491 c-15 -30 -12 -56 10 -76 45 -41 110 18 76 70 -21 31 -70
35 -86 6z"/>
<path d="M1105 275 c-31 -30 -32 -49 -3 -69 35 -25 94 -20 123 9 30 29 31 39
5 65 -29 29 -94 27 -125 -5z"/>
<path d="M928 488 c-9 -7 -20 -26 -24 -42 -6 -27 -5 -29 17 -23 13 4 30 7 37
7 16 0 16 31 -1 53 -10 15 -15 16 -29 5z"/>
<path d="M1873 454 c-21 -21 -24 -32 -19 -62 10 -67 69 -91 120 -51 20 16 26
29 26 59 0 72 -77 104 -127 54z"/>
</g>
</svg>
